<svg width="284" height="101" viewBox="0 0 284 101" fill="none" xmlns="http://www.w3.org/2000/svg">
<path fill-rule="evenodd" clip-rule="evenodd" d="M5 0C2.23859 0 0 2.23859 0 5V95C0 97.7614 2.23859 100 5 100H95C97.7615 100 100 97.7614 100 95V5C100 2.23859 97.7615 0 95 0H5ZM20.25 58.6C20.25 58.6 16 45.6597 16 37.1C16 24.2 22.375 7 33 7C43.625 7 45.75 23.0713 45.75 30.65C45.75 37.1 43.625 40.8625 41.5 44.625C39.375 48.3875 37.25 52.15 37.25 58.6H20.25ZM37.25 67.2C37.25 71.9434 33.4383 75.8 28.75 75.8C24.0617 75.8 20.25 71.9435 20.25 67.2V62.9H37.25V67.2ZM67 24.2C77.625 24.2 84 41.4 84 54.3C84 62.8597 79.75 75.8 79.75 75.8H62.75C62.75 69.35 60.625 65.5875 58.5 61.825C56.375 58.0625 54.25 54.3 54.25 47.85C54.25 40.2712 56.375 24.2 67 24.2ZM79.75 84.4C79.75 89.1434 75.9382 93 71.25 93C66.5618 93 62.75 89.1434 62.75 84.4V80.1H79.75V84.4Z" fill="#2B2D42"/>
<path d="M138.055 11.5686L126.439 49.3778H114.103L131.609 1.50802H139.429L138.055 11.5686ZM147.675 49.3778L136.026 11.5686L134.521 1.50802H142.439L160.043 49.3778H147.675ZM147.217 31.5253V40.435H122.774V31.5253H147.217ZM195.022 40.5008V49.3778H170.939V40.5008H195.022ZM175.03 1.50802V49.3778H163.545V1.50802H175.03ZM215.342 49.3778H204.773L204.839 40.5008H215.342C217.523 40.5008 219.367 39.9747 220.872 38.9227C222.399 37.8705 223.555 36.3035 224.34 34.2213C225.148 32.1171 225.551 29.5306 225.551 26.462V24.3909C225.551 22.0894 225.322 20.0729 224.864 18.3414C224.428 16.5879 223.773 15.1303 222.901 13.9686C222.028 12.785 220.938 11.8973 219.629 11.3055C218.341 10.7138 216.858 10.4178 215.178 10.4178H204.577V1.50802H215.178C218.407 1.50802 221.363 2.06693 224.046 3.18478C226.751 4.2807 229.085 5.85882 231.048 7.91915C233.033 9.95755 234.56 12.3796 235.629 15.1851C236.72 17.9687 237.265 21.0592 237.265 24.4566V26.462C237.265 29.8374 236.72 32.9281 235.629 35.7336C234.56 38.5392 233.044 40.9611 231.081 42.9995C229.118 45.0379 226.794 46.616 224.112 47.734C221.45 48.8299 218.527 49.3778 215.342 49.3778ZM211.35 1.50802V49.3778H199.865V1.50802H211.35ZM283.566 24.4894V26.4293C283.566 30.0895 283.053 33.3774 282.028 36.2925C281.025 39.1858 279.596 41.6625 277.741 43.7229C275.887 45.7613 273.695 47.3284 271.164 48.4244C268.634 49.4983 265.842 50.0354 262.788 50.0354C259.712 50.0354 256.898 49.4983 254.346 48.4244C251.815 47.3284 249.612 45.7613 247.736 43.7229C245.882 41.6625 244.442 39.1858 243.417 36.2925C242.413 33.3774 241.912 30.0895 241.912 26.4293V24.4894C241.912 20.8291 242.413 17.5413 243.417 14.6262C244.442 11.711 245.871 9.23426 247.703 7.19583C249.558 5.13552 251.75 3.56834 254.28 2.49435C256.833 1.39842 259.647 0.850464 262.722 0.850464C265.776 0.850464 268.569 1.39842 271.099 2.49435C273.651 3.56834 275.854 5.13552 277.709 7.19583C279.563 9.23426 281.003 11.711 282.028 14.6262C283.053 17.5413 283.566 20.8291 283.566 24.4894ZM271.917 26.4293V24.4236C271.917 22.0565 271.71 19.9743 271.295 18.177C270.903 16.3577 270.314 14.8344 269.528 13.607C268.743 12.3796 267.772 11.459 266.616 10.8453C265.482 10.2096 264.184 9.89181 262.722 9.89181C261.195 9.89181 259.865 10.2096 258.73 10.8453C257.596 11.459 256.647 12.3796 255.884 13.607C255.12 14.8344 254.542 16.3577 254.149 18.177C253.779 19.9743 253.593 22.0565 253.593 24.4236V26.4293C253.593 28.7745 253.779 30.8567 254.149 32.676C254.542 34.4734 255.12 35.9967 255.884 37.2459C256.669 38.4954 257.629 39.4378 258.763 40.0735C259.919 40.7091 261.261 41.0269 262.788 41.0269C264.249 41.0269 265.547 40.7091 266.682 40.0735C267.816 39.4378 268.765 38.4954 269.528 37.2459C270.314 35.9967 270.903 34.4734 271.295 32.676C271.71 30.8567 271.917 28.7745 271.917 26.4293Z" fill="#2B2D42"/>
<path d="M133.016 90.2731C133.016 89.7762 132.943 89.3307 132.798 88.9361C132.652 88.527 132.383 88.147 131.99 87.7964C131.598 87.4456 131.031 87.095 130.289 86.7442C129.562 86.379 128.602 85.9991 127.41 85.6045C126.013 85.137 124.668 84.6109 123.374 84.0264C122.08 83.4274 120.923 82.7332 119.905 81.9442C118.887 81.1405 118.08 80.2052 117.484 79.1387C116.888 78.0573 116.59 76.8006 116.59 75.3687C116.59 73.9951 116.895 72.7604 117.506 71.6645C118.117 70.5539 118.967 69.6115 120.058 68.8369C121.163 68.048 122.458 67.4487 123.941 67.0396C125.424 66.6158 127.046 66.4039 128.806 66.4039C131.132 66.4039 133.183 66.8131 134.957 67.6314C136.746 68.4352 138.142 69.5823 139.145 71.0726C140.164 72.5485 140.672 74.2947 140.672 76.3111H133.059C133.059 75.5074 132.892 74.7988 132.558 74.185C132.238 73.5713 131.751 73.0892 131.096 72.7384C130.442 72.3878 129.62 72.2123 128.631 72.2123C127.671 72.2123 126.864 72.3584 126.21 72.6507C125.555 72.9429 125.061 73.3375 124.726 73.8344C124.392 74.3165 124.225 74.85 124.225 75.4345C124.225 75.9166 124.356 76.3549 124.617 76.7495C124.894 77.1295 125.279 77.4875 125.773 77.8234C126.282 78.1597 126.893 78.4811 127.606 78.7879C128.333 79.0947 129.147 79.3943 130.049 79.6866C131.736 80.2272 133.234 80.8337 134.543 81.5059C135.866 82.1633 136.979 82.9159 137.88 83.7634C138.796 84.5963 139.487 85.5461 139.953 86.6127C140.433 87.6795 140.672 88.885 140.672 90.2294C140.672 91.6613 140.396 92.9326 139.843 94.0431C139.291 95.1537 138.498 96.0961 137.466 96.8707C136.433 97.6304 135.197 98.2077 133.757 98.6021C132.318 98.9966 130.711 99.1939 128.936 99.1939C127.308 99.1939 125.701 98.9895 124.116 98.5803C122.545 98.1565 121.12 97.5135 119.84 96.6514C118.56 95.7747 117.535 94.6568 116.764 93.298C116.008 91.9244 115.63 90.2951 115.63 88.41H123.308C123.308 89.3453 123.432 90.1344 123.679 90.7773C123.927 91.4203 124.29 91.939 124.77 92.3335C125.25 92.7133 125.839 92.9909 126.537 93.1665C127.235 93.3272 128.035 93.4075 128.936 93.4075C129.911 93.4075 130.696 93.2686 131.292 92.9909C131.889 92.6987 132.325 92.319 132.601 91.8512C132.878 91.3691 133.016 90.843 133.016 90.2731ZM172.722 79.5113V85.4292H156.427V79.5113H172.722ZM158.979 66.8423V98.7556H151.322V66.8423H158.979ZM177.87 66.8423V98.7556H170.235V66.8423H177.87ZM216.311 82.1633V83.4566C216.311 85.8967 215.969 88.0886 215.286 90.0321C214.617 91.961 213.664 93.612 212.428 94.9856C211.192 96.3446 209.73 97.3894 208.043 98.12C206.356 98.8359 204.495 99.1939 202.459 99.1939C200.408 99.1939 198.532 98.8359 196.831 98.12C195.144 97.3894 193.675 96.3446 192.424 94.9856C191.188 93.612 190.228 91.961 189.545 90.0321C188.876 88.0886 188.541 85.8967 188.541 83.4566V82.1633C188.541 79.7231 188.876 77.5312 189.545 75.5877C190.228 73.6443 191.181 71.9933 192.402 70.6343C193.639 69.2607 195.1 68.2159 196.787 67.4999C198.489 66.7693 200.365 66.4039 202.415 66.4039C204.451 66.4039 206.313 66.7693 208 67.4999C209.701 68.2159 211.17 69.2607 212.406 70.6343C213.642 71.9933 214.602 73.6443 215.286 75.5877C215.969 77.5312 216.311 79.7231 216.311 82.1633ZM208.545 83.4566V82.1195C208.545 80.5415 208.407 79.1533 208.131 77.955C207.869 76.7423 207.476 75.7267 206.953 74.9084C206.429 74.09 205.782 73.4764 205.011 73.0672C204.255 72.6435 203.39 72.4316 202.415 72.4316C201.397 72.4316 200.51 72.6435 199.754 73.0672C198.998 73.4764 198.365 74.09 197.856 74.9084C197.347 75.7267 196.962 76.7423 196.7 77.955C196.453 79.1533 196.329 80.5415 196.329 82.1195V83.4566C196.329 85.02 196.453 86.4082 196.7 87.6211C196.962 88.8192 197.347 89.8348 197.856 90.6677C198.38 91.5006 199.02 92.1289 199.776 92.5526C200.547 92.9764 201.441 93.1882 202.459 93.1882C203.433 93.1882 204.299 92.9764 205.055 92.5526C205.811 92.1289 206.443 91.5006 206.953 90.6677C207.476 89.8348 207.869 88.8192 208.131 87.6211C208.407 86.4082 208.545 85.02 208.545 83.4566ZM248.84 92.8377V98.7556H231.912V92.8377H248.84ZM234.639 66.8423V98.7556H226.982V66.8423H234.639ZM246.659 79.5113V85.2319H231.912V79.5113H246.659ZM248.906 66.8423V72.7822H231.912V66.8423H248.906ZM275.043 90.2731C275.043 89.7762 274.97 89.3307 274.825 88.9361C274.68 88.527 274.41 88.147 274.018 87.7964C273.625 87.4456 273.058 87.095 272.316 86.7442C271.589 86.379 270.629 85.9991 269.437 85.6045C268.041 85.137 266.696 84.6109 265.401 84.0264C264.107 83.4274 262.951 82.7332 261.933 81.9442C260.915 81.1405 260.108 80.2052 259.511 79.1387C258.915 78.0573 258.617 76.8006 258.617 75.3687C258.617 73.9951 258.922 72.7604 259.533 71.6645C260.144 70.5539 260.995 69.6115 262.086 68.8369C263.191 68.048 264.485 67.4487 265.968 67.0396C267.452 66.6158 269.073 66.4039 270.833 66.4039C273.16 66.4039 275.21 66.8131 276.985 67.6314C278.773 68.4352 280.17 69.5823 281.173 71.0726C282.191 72.5485 282.7 74.2947 282.7 76.3111H275.087C275.087 75.5074 274.92 74.7988 274.585 74.185C274.265 73.5713 273.778 73.0892 273.124 72.7384C272.469 72.3878 271.648 72.2123 270.658 72.2123C269.699 72.2123 268.891 72.3584 268.237 72.6507C267.583 72.9429 267.088 73.3375 266.754 73.8344C266.419 74.3165 266.252 74.85 266.252 75.4345C266.252 75.9166 266.383 76.3549 266.645 76.7495C266.921 77.1295 267.306 77.4875 267.801 77.8234C268.31 78.1597 268.921 78.4811 269.633 78.7879C270.36 79.0947 271.175 79.3943 272.076 79.6866C273.763 80.2272 275.261 80.8337 276.57 81.5059C277.894 82.1633 279.006 82.9159 279.908 83.7634C280.824 84.5963 281.515 85.5461 281.98 86.6127C282.46 87.6795 282.7 88.885 282.7 90.2294C282.7 91.6613 282.424 92.9326 281.871 94.0431C281.318 95.1537 280.526 96.0961 279.493 96.8707C278.461 97.6304 277.225 98.2077 275.785 98.6021C274.345 98.9966 272.738 99.1939 270.964 99.1939C269.335 99.1939 267.728 98.9895 266.143 98.5803C264.572 98.1565 263.147 97.5135 261.867 96.6514C260.588 95.7747 259.562 94.6568 258.792 93.298C258.035 91.9244 257.657 90.2951 257.657 88.41H265.336C265.336 89.3453 265.46 90.1344 265.707 90.7773C265.954 91.4203 266.318 91.939 266.797 92.3335C267.277 92.7133 267.866 92.9909 268.564 93.1665C269.262 93.3272 270.062 93.4075 270.964 93.4075C271.938 93.4075 272.724 93.2686 273.32 92.9909C273.916 92.6987 274.352 92.319 274.629 91.8512C274.905 91.3691 275.043 90.843 275.043 90.2731Z" fill="#2B2D42"/>
</svg>
